<?xml version="1.0" encoding="UTF-8"?>
<svg viewBox="0 0 280 720" xmlns="http://www.w3.org/2000/svg">
    <g fill="none" stroke="#ff0040" stroke-width="4" stroke-linecap="round" stroke-linejoin="round">

        <!-- Голова -->
        <ellipse cx="140" cy="70" rx="40" ry="50"/>

        <!-- Шея -->
        <path d="M120 120 L120 145 M160 120 L160 145"/>

        <!-- Плечи -->
        <path d="M80 155 Q140 125 200 155"/>

        <!-- Торс (грудь и рёбра) -->
        <path d="M80 155
             Q70 220 90 280
             Q110 350 140 360
             Q170 350 190 280
             Q210 220 200 155"/>

        <!-- Серединная линия -->
        <line x1="140" y1="155" x2="140" y2="365" stroke-dasharray="10 8"/>

        <!-- Таз -->
        <path d="M110 365
             Q140 390 170 365
             Q160 420 140 440
             Q120 420 110 365"/>

        <!-- Левая рука -->
        <path d="M80 160
             Q50 240 60 310
             Q70 380 75 430"/>

        <!-- Правая рука -->
        <path d="M200 160
             Q230 240 220 310
             Q210 380 205 430"/>

        <!-- Левое предплечье -->
        <path d="M75 430 L70 510"/>

        <!-- Правое предплечье -->
        <path d="M205 430 L210 510"/>

        <!-- Левая ладонь -->
        <path d="M70 510 Q65 525 75 540"/>

        <!-- Правая ладонь -->
        <path d="M210 510 Q215 525 205 540"/>

        <!-- Левая нога -->
        <path d="M120 440
             Q105 530 115 620
             Q120 670 125 690"/>

        <!-- Правая нога -->
        <path d="M160 440
             Q175 530 165 620
             Q160 670 155 690"/>

        <!-- Ступни -->
        <path d="M125 690 Q110 705 135 710"/>
        <path d="M155 690 Q170 705 145 710"/>

        <!-- Размеченные зоны для подсветки -->
        <rect id="zone-head" x="95" y="20" width="90" height="120" fill="none" stroke-opacity="0.25"/>
        <rect id="zone-torso" x="70" y="150" width="140" height="220" fill="none" stroke-opacity="0.25"/>
        <rect id="zone-pelvis" x="100" y="360" width="80" height="100" fill="none" stroke-opacity="0.25"/>
        <rect id="zone-legs" x="90" y="440" width="100" height="270" fill="none" stroke-opacity="0.25"/>

    </g>
</svg>